<svg width="30" height="48" viewBox="0 0 30 48" fill="none" xmlns="http://www.w3.org/2000/svg">
<path d="M10.5883 9H8.82343V10.7729H10.5883V9Z" fill="white"/>
<path d="M12.3532 9H10.5883V10.7729H12.3532V9Z" fill="white"/>
<path d="M8.82339 10.7729H7.05847V12.5459H8.82339V10.7729Z" fill="white"/>
<path d="M14.1181 10.7729H12.3532V12.5459H14.1181V10.7729Z" fill="white"/>
<path d="M8.82339 12.5459H7.05847V14.3188H8.82339V12.5459Z" fill="white"/>
<path d="M14.1181 12.5459H12.3532V14.3188H14.1181V12.5459Z" fill="white"/>
<path d="M8.82339 14.3177H7.05847V16.0906H8.82339V14.3177Z" fill="white"/>
<path d="M14.1181 14.3177H12.3532V16.0906H14.1181V14.3177Z" fill="white"/>
<path d="M8.82339 16.0906H7.05847V17.8635H8.82339V16.0906Z" fill="white"/>
<path d="M14.1181 16.0906H12.3532V17.8635H14.1181V16.0906Z" fill="white"/>
<path d="M8.82339 17.8635H7.05847V19.6365H8.82339V17.8635Z" fill="white"/>
<path d="M14.1181 17.8635H12.3532V19.6365H14.1181V17.8635Z" fill="white"/>
<path d="M15.8819 17.8635H14.1169V19.6365H15.8819V17.8635Z" fill="white"/>
<path d="M17.6468 17.8635H15.8819V19.6365H17.6468V17.8635Z" fill="white"/>
<path d="M8.82339 19.6365H7.05847V21.4094H8.82339V19.6365Z" fill="white"/>
<path d="M14.1181 19.6365H12.3532V21.4094H14.1181V19.6365Z" fill="white"/>
<path d="M19.4117 19.6365H17.6468V21.4094H19.4117V19.6365Z" fill="white"/>
<path d="M21.1766 19.6365H19.4117V21.4094H21.1766V19.6365Z" fill="white"/>
<path d="M22.9415 19.6365H21.1766V21.4094H22.9415V19.6365Z" fill="white"/>
<path d="M8.82339 21.4094H7.05847V23.1824H8.82339V21.4094Z" fill="white"/>
<path d="M14.1181 21.4094H12.3532V23.1824H14.1181V21.4094Z" fill="white"/>
<path d="M19.4117 21.4094H17.6468V23.1824H19.4117V21.4094Z" fill="white"/>
<path d="M24.7053 21.4094H22.9404V23.1824H24.7053V21.4094Z" fill="white"/>
<path d="M26.4702 21.4094H24.7053V23.1824H26.4702V21.4094Z" fill="white"/>
<path d="M8.82339 23.1812H7.05847V24.9541H8.82339V23.1812Z" fill="white"/>
<path d="M14.1181 23.1812H12.3532V24.9541H14.1181V23.1812Z" fill="white"/>
<path d="M19.4117 23.1812H17.6468V24.9541H19.4117V23.1812Z" fill="white"/>
<path d="M24.7053 23.1812H22.9404V24.9541H24.7053V23.1812Z" fill="white"/>
<path d="M28.2351 23.1812H26.4702V24.9541H28.2351V23.1812Z" fill="white"/>
<path d="M1.76491 24.9541H0V26.727H1.76491V24.9541Z" fill="white"/>
<path d="M3.52987 24.9541H1.76495V26.727H3.52987V24.9541Z" fill="white"/>
<path d="M5.29476 24.9541H3.52985V26.727H5.29476V24.9541Z" fill="white"/>
<path d="M8.82339 24.9541H7.05847V26.727H8.82339V24.9541Z" fill="white"/>
<path d="M14.1181 24.9541H12.3532V26.727H14.1181V24.9541Z" fill="white"/>
<path d="M19.4117 24.9541H17.6468V26.727H19.4117V24.9541Z" fill="white"/>
<path d="M19.4117 26.7271H17.6468V28.5H19.4117V26.7271Z" fill="white"/>
<path d="M24.7053 24.9541H22.9404V26.727H24.7053V24.9541Z" fill="white"/>
<path d="M30 24.9541H28.235V26.727H30V24.9541Z" fill="white"/>
<path d="M1.76491 26.7271H0V28.5H1.76491V26.7271Z" fill="white"/>
<path d="M7.05849 26.7271H5.29358V28.5H7.05849V26.7271Z" fill="white"/>
<path d="M8.82339 26.7271H7.05847V28.5H8.82339V26.7271Z" fill="white"/>
<path d="M24.7053 26.7271H22.9404V28.5H24.7053V26.7271Z" fill="white"/>
<path d="M24.7053 28.5H22.9404V30.2729H24.7053V28.5Z" fill="white"/>
<path d="M30 26.7271H28.235V28.5H30V26.7271Z" fill="white"/>
<path d="M1.76491 28.5H0V30.2729H1.76491V28.5Z" fill="white"/>
<path d="M8.82339 28.5H7.05847V30.2729H8.82339V28.5Z" fill="white"/>
<path d="M30 28.5H28.235V30.2729H30V28.5Z" fill="white"/>
<path d="M3.52987 30.2729H1.76495V32.0459H3.52987V30.2729Z" fill="white"/>
<path d="M30 30.2729H28.235V32.0459H30V30.2729Z" fill="white"/>
<path d="M5.29476 32.0447H3.52985V33.8176H5.29476V32.0447Z" fill="white"/>
<path d="M30 32.0447H28.235V33.8176H30V32.0447Z" fill="white"/>
<path d="M5.29476 33.8176H3.52985V35.5906H5.29476V33.8176Z" fill="white"/>
<path d="M30 33.8176H28.235V35.5906H30V33.8176Z" fill="white"/>
<path d="M7.05849 35.5906H5.29358V37.3635H7.05849V35.5906Z" fill="white"/>
<path d="M30 35.5906H28.235V37.3635H30V35.5906Z" fill="white"/>
<path d="M7.05849 37.3635H5.29358V39.1365H7.05849V37.3635Z" fill="white"/>
<path d="M28.2351 37.3635H26.4702V39.1365H28.2351V37.3635Z" fill="white"/>
<path d="M8.82339 39.1365H7.05847V40.9094H8.82339V39.1365Z" fill="white"/>
<path d="M28.2351 39.1365H26.4702V40.9094H28.2351V39.1365Z" fill="white"/>
<path d="M8.82339 40.9094H7.05847V42.6824H8.82339V40.9094Z" fill="white"/>
<path d="M28.2351 40.9094H26.4702V42.6824H28.2351V40.9094Z" fill="white"/>
<path d="M10.5883 42.6812H8.82343V44.4541H10.5883V42.6812Z" fill="white"/>
<path d="M26.4702 42.6812H24.7053V44.4541H26.4702V42.6812Z" fill="white"/>
<path d="M10.5883 44.4541H8.82343V46.2271H10.5883V44.4541Z" fill="white"/>
<path d="M26.4702 44.4541H24.7053V46.2271H26.4702V44.4541Z" fill="white"/>
<path d="M10.5883 46.2271H8.82343V48H10.5883V46.2271Z" fill="white"/>
<path d="M12.3532 46.2271H10.5883V48H12.3532V46.2271Z" fill="white"/>
<path d="M14.1181 46.2271H12.3532V48H14.1181V46.2271Z" fill="white"/>
<path d="M15.8819 46.2271H14.1169V48H15.8819V46.2271Z" fill="white"/>
<path d="M17.6468 46.2271H15.8819V48H17.6468V46.2271Z" fill="white"/>
<path d="M19.4117 46.2271H17.6468V48H19.4117V46.2271Z" fill="white"/>
<path d="M21.1766 46.2271H19.4117V48H21.1766V46.2271Z" fill="white"/>
<path d="M22.9415 46.2271H21.1766V48H22.9415V46.2271Z" fill="white"/>
<path d="M24.7053 46.2271H22.9404V48H24.7053V46.2271Z" fill="white"/>
<path d="M26.4702 46.2271H24.7053V48H26.4702V46.2271Z" fill="white"/>
<circle cx="12" cy="11" r="11" fill="white" fill-opacity="0.2"/>
</svg>
