<svg width="156" height="32" viewBox="0 0 156 32" fill="none" xmlns="http://www.w3.org/2000/svg">
<g filter="url(#filter0_d_191243_637)">
<path d="M16.0625 15.5977H22.2266V0.867188H25.0625V18H4.26172V0.867188H7.0625V15.5977H13.2266V0.867188H16.0625V15.5977ZM40.8008 11.4961C40.8008 13.6133 40.2578 15.2656 39.1719 16.4531C38.0859 17.6406 36.5742 18.2344 34.6367 18.2344C33.4258 18.2344 32.3555 17.9609 31.4258 17.4141C30.4961 16.8672 29.7812 16.082 29.2812 15.0586C28.7812 14.0352 28.5312 12.8477 28.5312 11.4961C28.5312 9.39453 29.0703 7.75391 30.1484 6.57422C31.2266 5.39453 32.7461 4.80469 34.707 4.80469C36.582 4.80469 38.0664 5.41016 39.1602 6.62109C40.2539 7.82422 40.8008 9.44922 40.8008 11.4961ZM31.3672 11.4961C31.3672 14.4883 32.4727 15.9844 34.6836 15.9844C36.8711 15.9844 37.9648 14.4883 37.9648 11.4961C37.9648 8.53516 36.8633 7.05469 34.6602 7.05469C33.5039 7.05469 32.6641 7.4375 32.1406 8.20312C31.625 8.96875 31.3672 10.0664 31.3672 11.4961ZM42.0078 5.03906H45.0078L47.6445 12.3867C48.043 13.4336 48.3086 14.418 48.4414 15.3398H48.5352C48.6055 14.9102 48.7344 14.3906 48.9219 13.7812C49.1094 13.1641 50.1016 10.25 51.8984 5.03906H54.875L49.332 19.7227C48.3242 22.418 46.6445 23.7656 44.293 23.7656C43.6836 23.7656 43.0898 23.6992 42.5117 23.5664V21.3867C42.9258 21.4805 43.3984 21.5273 43.9297 21.5273C45.2578 21.5273 46.1914 20.7578 46.7305 19.2188L47.2109 18L42.0078 5.03906ZM63.418 18.2344C61.7773 18.2344 60.5039 17.6445 59.5977 16.4648H59.4336C59.543 17.5586 59.5977 18.2227 59.5977 18.457V23.7656H56.8438V5.03906H59.0703C59.1328 5.28125 59.2617 5.85938 59.457 6.77344H59.5977C60.457 5.46094 61.7461 4.80469 63.4648 4.80469C65.082 4.80469 66.3398 5.39062 67.2383 6.5625C68.1445 7.73438 68.5977 9.37891 68.5977 11.4961C68.5977 13.6133 68.1367 15.2656 67.2148 16.4531C66.3008 17.6406 65.0352 18.2344 63.418 18.2344ZM62.75 7.05469C61.6562 7.05469 60.8555 7.375 60.3477 8.01562C59.8477 8.65625 59.5977 9.67969 59.5977 11.0859V11.4961C59.5977 13.0742 59.8477 14.2188 60.3477 14.9297C60.8477 15.6328 61.6641 15.9844 62.7969 15.9844C63.75 15.9844 64.4844 15.5938 65 14.8125C65.5156 14.0312 65.7734 12.918 65.7734 11.4727C65.7734 10.0195 65.5156 8.92188 65 8.17969C64.4922 7.42969 63.7422 7.05469 62.75 7.05469ZM69.8281 5.03906H72.8281L75.4648 12.3867C75.8633 13.4336 76.1289 14.418 76.2617 15.3398H76.3555C76.4258 14.9102 76.5547 14.3906 76.7422 13.7812C76.9297 13.1641 77.9219 10.25 79.7188 5.03906H82.6953L77.1523 19.7227C76.1445 22.418 74.4648 23.7656 72.1133 23.7656C71.5039 23.7656 70.9102 23.6992 70.332 23.5664V21.3867C70.7461 21.4805 71.2188 21.5273 71.75 21.5273C73.0781 21.5273 74.0117 20.7578 74.5508 19.2188L75.0312 18L69.8281 5.03906ZM92.1055 15.3633L92.2578 14.8008C92.5781 13.6367 92.8555 12.7422 93.0898 12.1172L95.9961 5.03906H99.6641V18H97.1211V7.53516L96.9102 8.23828C96.5586 9.49609 96.2617 10.4219 96.0195 11.0156L93.1836 18H91.0977L88.2617 10.9688C87.8711 9.95312 87.5117 8.80859 87.1836 7.53516V18H84.6641V5.03906H88.3086L91.1211 11.9062C91.3711 12.5391 91.6992 13.6914 92.1055 15.3633ZM122.246 18H119.223L112.191 4.67578H112.039C112.203 6.66797 112.285 8.26172 112.285 9.45703V18H109.836V0.867188H112.906L119.867 14.1328H120.008C119.867 12.1953 119.797 10.6602 119.797 9.52734V0.867188H122.246V18ZM131.387 10.6289C131.387 11.9414 131.051 12.9648 130.379 13.6992C129.715 14.4258 128.785 14.7891 127.59 14.7891C126.457 14.7891 125.551 14.4219 124.871 13.6875C124.191 12.9531 123.852 11.9336 123.852 10.6289C123.852 9.32422 124.184 8.30859 124.848 7.58203C125.52 6.84766 126.453 6.48047 127.648 6.48047C128.789 6.48047 129.695 6.85938 130.367 7.61719C131.047 8.375 131.387 9.37891 131.387 10.6289ZM125.797 10.6289C125.797 11.4648 125.938 12.0938 126.219 12.5156C126.5 12.9375 126.969 13.1484 127.625 13.1484C128.258 13.1484 128.715 12.9375 128.996 12.5156C129.277 12.0938 129.418 11.4648 129.418 10.6289C129.418 9.78516 129.277 9.16016 128.996 8.75391C128.715 8.33984 128.258 8.13281 127.625 8.13281C126.984 8.13281 126.52 8.33984 126.23 8.75391C125.941 9.16016 125.797 9.78516 125.797 10.6289ZM124.238 18V16.1016H130.977V18H124.238ZM151.941 14.2617H149.633V18H146.949V14.2617H139.121V12.1406L146.949 0.820312H149.633V11.9766H151.941V14.2617ZM146.949 11.9766V7.67578C146.949 6.14453 146.988 4.89062 147.066 3.91406H146.973C146.754 4.42969 146.41 5.05469 145.941 5.78906L141.688 11.9766H146.949Z" fill="#333333"/>
<path d="M16.0625 15.5977H15.0625V16.5977H16.0625V15.5977ZM22.2266 15.5977V16.5977H23.2266V15.5977H22.2266ZM22.2266 0.867188V-0.132812H21.2266V0.867188H22.2266ZM25.0625 0.867188H26.0625V-0.132812H25.0625V0.867188ZM25.0625 18V19H26.0625V18H25.0625ZM4.26172 18H3.26172V19H4.26172V18ZM4.26172 0.867188V-0.132812H3.26172V0.867188H4.26172ZM7.0625 0.867188H8.0625V-0.132812H7.0625V0.867188ZM7.0625 15.5977H6.0625V16.5977H7.0625V15.5977ZM13.2266 15.5977V16.5977H14.2266V15.5977H13.2266ZM13.2266 0.867188V-0.132812H12.2266V0.867188H13.2266ZM16.0625 0.867188H17.0625V-0.132812H16.0625V0.867188ZM16.0625 16.5977H22.2266V14.5977H16.0625V16.5977ZM23.2266 15.5977V0.867188H21.2266V15.5977H23.2266ZM22.2266 1.86719H25.0625V-0.132812H22.2266V1.86719ZM24.0625 0.867188V18H26.0625V0.867188H24.0625ZM25.0625 17H4.26172V19H25.0625V17ZM5.26172 18V0.867188H3.26172V18H5.26172ZM4.26172 1.86719H7.0625V-0.132812H4.26172V1.86719ZM6.0625 0.867188V15.5977H8.0625V0.867188H6.0625ZM7.0625 16.5977H13.2266V14.5977H7.0625V16.5977ZM14.2266 15.5977V0.867188H12.2266V15.5977H14.2266ZM13.2266 1.86719H16.0625V-0.132812H13.2266V1.86719ZM15.0625 0.867188V15.5977H17.0625V0.867188H15.0625ZM39.1602 6.62109L38.418 7.29138L38.4202 7.29377L39.1602 6.62109ZM32.1406 8.20312L31.3151 7.63873L31.3112 7.64452L32.1406 8.20312ZM39.8008 11.4961C39.8008 13.4443 39.3037 14.8271 38.4339 15.7783L39.9098 17.128C41.2119 15.7041 41.8008 13.7823 41.8008 11.4961H39.8008ZM38.4339 15.7783C37.5756 16.7168 36.3556 17.2344 34.6367 17.2344V19.2344C36.7928 19.2344 38.5962 18.5644 39.9098 17.128L38.4339 15.7783ZM34.6367 17.2344C33.5817 17.2344 32.6906 16.9979 31.9328 16.5521L30.9188 18.276C32.0203 18.924 33.2699 19.2344 34.6367 19.2344V17.2344ZM31.9328 16.5521C31.182 16.1105 30.5987 15.4771 30.1798 14.6196L28.3827 15.4976C28.9638 16.6869 29.8102 17.6239 30.9188 18.276L31.9328 16.5521ZM30.1798 14.6196C29.7579 13.7561 29.5312 12.7237 29.5312 11.4961H27.5312C27.5312 12.9716 27.8046 14.3142 28.3827 15.4976L30.1798 14.6196ZM29.5312 11.4961C29.5312 9.56365 30.0243 8.19233 30.8866 7.24884L29.4103 5.8996C28.1163 7.31549 27.5312 9.22542 27.5312 11.4961H29.5312ZM30.8866 7.24884C31.7334 6.32227 32.9582 5.80469 34.707 5.80469V3.80469C32.534 3.80469 30.7197 4.46679 29.4103 5.8996L30.8866 7.24884ZM34.707 5.80469C36.3457 5.80469 37.543 6.32255 38.4181 7.29138L39.9023 5.95081C38.5898 4.49776 36.8184 3.80469 34.707 3.80469V5.80469ZM38.4202 7.29377C39.3065 8.26868 39.8008 9.63109 39.8008 11.4961H41.8008C41.8008 9.26735 41.2013 7.37975 39.9001 5.94842L38.4202 7.29377ZM30.3672 11.4961C30.3672 13.086 30.6557 14.4601 31.392 15.4566C32.1702 16.5097 33.3285 16.9844 34.6836 16.9844V14.9844C33.8278 14.9844 33.3279 14.711 33.0006 14.268C32.6314 13.7685 32.3672 12.8983 32.3672 11.4961H30.3672ZM34.6836 16.9844C36.0311 16.9844 37.1811 16.5066 37.9518 15.4525C38.6798 14.4566 38.9648 13.0844 38.9648 11.4961H36.9648C36.9648 12.8999 36.703 13.7719 36.3373 14.2721C36.0142 14.7141 35.5236 14.9844 34.6836 14.9844V16.9844ZM38.9648 11.4961C38.9648 9.9207 38.6769 8.55724 37.941 7.56809C37.1637 6.5235 36.0087 6.05469 34.6602 6.05469V8.05469C35.5147 8.05469 36.0121 8.32611 36.3364 8.76199C36.702 9.25331 36.9648 10.1105 36.9648 11.4961H38.9648ZM34.6602 6.05469C33.2657 6.05469 32.0714 6.53248 31.3151 7.63874L32.9661 8.76751C33.2567 8.34252 33.7421 8.05469 34.6602 8.05469V6.05469ZM31.3112 7.64452C30.6388 8.64293 30.3672 9.96868 30.3672 11.4961H32.3672C32.3672 10.1641 32.6112 9.29457 32.9701 8.76173L31.3112 7.64452ZM42.0078 5.03906V4.03906H40.5288L41.0798 5.41161L42.0078 5.03906ZM45.0078 5.03906L45.949 4.7013L45.7114 4.03906H45.0078V5.03906ZM47.6445 12.3867L46.7033 12.7245L46.7065 12.7335L46.7099 12.7424L47.6445 12.3867ZM48.4414 15.3398L47.4516 15.4824L47.5751 16.3398H48.4414V15.3398ZM48.5352 15.3398V16.3398H49.3848L49.522 15.5013L48.5352 15.3398ZM48.9219 13.7812L49.8777 14.0753L49.8787 14.0719L48.9219 13.7812ZM51.8984 5.03906V4.03906H51.1855L50.9531 4.71307L51.8984 5.03906ZM54.875 5.03906L55.8106 5.39223L56.3214 4.03906H54.875V5.03906ZM49.332 19.7227L48.3965 19.3695L48.3954 19.3724L49.332 19.7227ZM42.5117 23.5664H41.5117V24.3627L42.2878 24.541L42.5117 23.5664ZM42.5117 21.3867L42.7325 20.4114L41.5117 20.135V21.3867H42.5117ZM46.7305 19.2188L45.8002 18.852L45.7931 18.87L45.7867 18.8882L46.7305 19.2188ZM47.2109 18L48.1413 18.3668L48.2872 17.9966L48.139 17.6275L47.2109 18ZM42.0078 6.03906H45.0078V4.03906H42.0078V6.03906ZM44.0666 5.37683L46.7033 12.7245L48.5858 12.049L45.949 4.7013L44.0666 5.37683ZM46.7099 12.7424C47.0873 13.7339 47.3312 14.6463 47.4516 15.4824L49.4312 15.1972C49.286 14.1896 48.9987 13.1333 48.5791 12.031L46.7099 12.7424ZM48.4414 16.3398H48.5352V14.3398H48.4414V16.3398ZM49.522 15.5013C49.5825 15.1319 49.698 14.6592 49.8777 14.0753L47.9661 13.4872C47.7708 14.122 47.6284 14.6884 47.5483 15.1784L49.522 15.5013ZM49.8787 14.0719C50.0592 13.4779 51.0421 10.5901 52.8438 5.36505L50.9531 4.71307C49.1611 9.9099 48.1596 12.8502 47.9651 13.4906L49.8787 14.0719ZM51.8984 6.03906H54.875V4.03906H51.8984V6.03906ZM53.9394 4.68589L48.3965 19.3695L50.2676 20.0758L55.8106 5.39223L53.9394 4.68589ZM48.3954 19.3724C47.934 20.6064 47.3504 21.4455 46.6906 21.9749C46.0449 22.493 45.2635 22.7656 44.293 22.7656V24.7656C45.674 24.7656 46.9082 24.3645 47.9422 23.5349C48.9621 22.7166 49.7223 21.5342 50.2687 20.0729L48.3954 19.3724ZM44.293 22.7656C43.7569 22.7656 43.2383 22.7073 42.7356 22.5918L42.2878 24.541C42.9414 24.6912 43.6103 24.7656 44.293 24.7656V22.7656ZM43.5117 23.5664V21.3867H41.5117V23.5664H43.5117ZM42.2909 22.362C42.7928 22.4757 43.3418 22.5273 43.9297 22.5273V20.5273C43.4551 20.5273 43.0587 20.4853 42.7325 20.4114L42.2909 22.362ZM43.9297 22.5273C44.8016 22.5273 45.5983 22.269 46.262 21.7218C46.9106 21.1872 47.3647 20.4332 47.6743 19.5493L45.7867 18.8882C45.5572 19.5433 45.2749 19.9436 44.9899 20.1785C44.7201 20.401 44.3859 20.5273 43.9297 20.5273V22.5273ZM47.6608 19.5855L48.1413 18.3668L46.2806 17.6332L45.8002 18.852L47.6608 19.5855ZM48.139 17.6275L42.9358 4.66651L41.0798 5.41161L46.2829 18.3725L48.139 17.6275ZM59.5977 16.4648L60.3907 15.8556L60.0905 15.4648H59.5977V16.4648ZM59.4336 16.4648V15.4648H58.3286L58.4386 16.5643L59.4336 16.4648ZM59.5977 23.7656V24.7656H60.5977V23.7656H59.5977ZM56.8438 23.7656H55.8438V24.7656H56.8438V23.7656ZM56.8438 5.03906V4.03906H55.8438V5.03906H56.8438ZM59.0703 5.03906L60.0386 4.78918L59.845 4.03906H59.0703V5.03906ZM59.457 6.77344L58.4791 6.9824L58.6481 7.77344H59.457V6.77344ZM59.5977 6.77344V7.77344H60.1382L60.4343 7.32122L59.5977 6.77344ZM67.2383 6.5625L66.4447 7.17094L66.4472 7.17425L67.2383 6.5625ZM67.2148 16.4531L66.4249 15.8399L66.4224 15.8432L67.2148 16.4531ZM60.3477 8.01562L59.564 7.39441L59.5593 7.40035L60.3477 8.01562ZM60.3477 14.9297L59.5297 15.505L59.5327 15.5092L60.3477 14.9297ZM65 8.17969L64.1719 8.74039L64.1787 8.75025L65 8.17969ZM63.418 17.2344C62.0513 17.2344 61.0864 16.7612 60.3907 15.8556L58.8046 17.074C59.9215 18.5278 61.5033 19.2344 63.418 19.2344V17.2344ZM59.5977 15.4648H59.4336V17.4648H59.5977V15.4648ZM58.4386 16.5643C58.5503 17.6819 58.5977 18.2851 58.5977 18.457H60.5977C60.5977 18.1603 60.5356 17.4353 60.4286 16.3653L58.4386 16.5643ZM58.5977 18.457V23.7656H60.5977V18.457H58.5977ZM59.5977 22.7656H56.8438V24.7656H59.5977V22.7656ZM57.8438 23.7656V5.03906H55.8438V23.7656H57.8438ZM56.8438 6.03906H59.0703V4.03906H56.8438V6.03906ZM58.102 5.28894C58.1582 5.5064 58.2824 6.06162 58.4791 6.9824L60.435 6.56448C60.2411 5.65713 60.1075 5.0561 60.0386 4.78918L58.102 5.28894ZM59.457 7.77344H59.5977V5.77344H59.457V7.77344ZM60.4343 7.32122C61.0889 6.32144 62.0452 5.80469 63.4648 5.80469V3.80469C61.447 3.80469 59.8252 4.60043 58.761 6.22565L60.4343 7.32122ZM63.4648 5.80469C64.8051 5.80469 65.7553 6.27174 66.4447 7.17093L68.0319 5.95407C66.9244 4.50951 65.359 3.80469 63.4648 3.80469V5.80469ZM66.4472 7.17425C67.1707 8.10975 67.5977 9.50797 67.5977 11.4961H69.5977C69.5977 9.24984 69.1184 7.359 68.0293 5.95075L66.4472 7.17425ZM67.5977 11.4961C67.5977 13.4799 67.1648 14.8869 66.4249 15.8399L68.0048 17.0663C69.1087 15.6443 69.5977 13.7467 69.5977 11.4961H67.5977ZM66.4224 15.8432C65.7143 16.7631 64.7532 17.2344 63.418 17.2344V19.2344C65.3171 19.2344 66.8872 18.5182 68.0073 17.0631L66.4224 15.8432ZM62.75 6.05469C61.4616 6.05469 60.321 6.43946 59.564 7.39443L61.1313 8.63682C61.3899 8.31054 61.8509 8.05469 62.75 8.05469V6.05469ZM59.5593 7.40035C58.8533 8.30502 58.5977 9.60322 58.5977 11.0859H60.5977C60.5977 9.75616 60.842 9.00748 61.136 8.6309L59.5593 7.40035ZM58.5977 11.0859V11.4961H60.5977V11.0859H58.5977ZM58.5977 11.4961C58.5977 13.134 58.8484 14.5362 59.5297 15.505L61.1656 14.3544C60.8469 13.9013 60.5977 13.0144 60.5977 11.4961H58.5977ZM59.5327 15.5092C60.2768 16.5555 61.4519 16.9844 62.7969 16.9844V14.9844C61.8762 14.9844 61.4186 14.7101 61.1626 14.3502L59.5327 15.5092ZM62.7969 16.9844C64.0786 16.9844 65.1299 16.4311 65.8346 15.3633L64.1654 14.2617C63.8389 14.7564 63.4214 14.9844 62.7969 14.9844V16.9844ZM65.8346 15.3633C66.502 14.3521 66.7734 13.0151 66.7734 11.4727H64.7734C64.7734 12.8209 64.5292 13.7104 64.1654 14.2617L65.8346 15.3633ZM66.7734 11.4727C66.7734 9.92918 66.5046 8.59267 65.8213 7.60913L64.1787 8.75025C64.5267 9.25108 64.7734 10.1099 64.7734 11.4727H66.7734ZM65.828 7.61903C65.1142 6.56477 64.0367 6.05469 62.75 6.05469V8.05469C63.4477 8.05469 63.8702 8.29461 64.172 8.74035L65.828 7.61903ZM69.8281 5.03906V4.03906H68.3491L68.9001 5.41161L69.8281 5.03906ZM72.8281 5.03906L73.7694 4.7013L73.5317 4.03906H72.8281V5.03906ZM75.4648 12.3867L74.5236 12.7245L74.5268 12.7335L74.5302 12.7424L75.4648 12.3867ZM76.2617 15.3398L75.2719 15.4824L75.3955 16.3398H76.2617V15.3398ZM76.3555 15.3398V16.3398H77.2051L77.3423 15.5013L76.3555 15.3398ZM76.7422 13.7812L77.698 14.0753L77.699 14.0719L76.7422 13.7812ZM79.7188 5.03906V4.03906H79.0058L78.7734 4.71307L79.7188 5.03906ZM82.6953 5.03906L83.6309 5.39223L84.1417 4.03906H82.6953V5.03906ZM77.1523 19.7227L76.2168 19.3695L76.2157 19.3724L77.1523 19.7227ZM70.332 23.5664H69.332V24.3627L70.1081 24.541L70.332 23.5664ZM70.332 21.3867L70.5529 20.4114L69.332 20.135V21.3867H70.332ZM74.5508 19.2188L73.6205 18.852L73.6134 18.87L73.607 18.8882L74.5508 19.2188ZM75.0312 18L75.9616 18.3668L76.1075 17.9966L75.9593 17.6275L75.0312 18ZM69.8281 6.03906H72.8281V4.03906H69.8281V6.03906ZM71.8869 5.37683L74.5236 12.7245L76.4061 12.049L73.7694 4.7013L71.8869 5.37683ZM74.5302 12.7424C74.9076 13.7339 75.1515 14.6463 75.2719 15.4824L77.2515 15.1972C77.1063 14.1896 76.819 13.1333 76.3994 12.031L74.5302 12.7424ZM76.2617 16.3398H76.3555V14.3398H76.2617V16.3398ZM77.3423 15.5013C77.4028 15.1319 77.5183 14.6592 77.698 14.0753L75.7864 13.4872C75.5911 14.122 75.4488 14.6884 75.3686 15.1784L77.3423 15.5013ZM77.699 14.0719C77.8795 13.4779 78.8624 10.5901 80.6641 5.36505L78.7734 4.71307C76.9814 9.9099 75.9799 12.8502 75.7854 13.4906L77.699 14.0719ZM79.7188 6.03906H82.6953V4.03906H79.7188V6.03906ZM81.7598 4.68589L76.2168 19.3695L78.0879 20.0758L83.6309 5.39223L81.7598 4.68589ZM76.2157 19.3724C75.7543 20.6064 75.1708 21.4455 74.5109 21.9749C73.8652 22.493 73.0838 22.7656 72.1133 22.7656V24.7656C73.4943 24.7656 74.7285 24.3645 75.7625 23.5349C76.7824 22.7166 77.5426 21.5342 78.089 20.0729L76.2157 19.3724ZM72.1133 22.7656C71.5772 22.7656 71.0586 22.7073 70.5559 22.5918L70.1081 24.541C70.7617 24.6912 71.4306 24.7656 72.1133 24.7656V22.7656ZM71.332 23.5664V21.3867H69.332V23.5664H71.332ZM70.1112 22.362C70.6132 22.4757 71.1621 22.5273 71.75 22.5273V20.5273C71.2754 20.5273 70.879 20.4853 70.5529 20.4114L70.1112 22.362ZM71.75 22.5273C72.6219 22.5273 73.4186 22.269 74.0823 21.7218C74.7309 21.1872 75.185 20.4332 75.4946 19.5493L73.607 18.8882C73.3775 19.5433 73.0952 19.9436 72.8102 20.1785C72.5404 20.401 72.2062 20.5273 71.75 20.5273V22.5273ZM75.4811 19.5855L75.9616 18.3668L74.1009 17.6332L73.6205 18.852L75.4811 19.5855ZM75.9593 17.6275L70.7561 4.66651L68.9001 5.41161L74.1032 18.3725L75.9593 17.6275ZM92.1055 15.3633L91.1337 15.5994L93.0707 15.6247L92.1055 15.3633ZM92.2578 14.8008L91.2936 14.5355L91.2926 14.5394L92.2578 14.8008ZM93.0898 12.1172L92.1648 11.7374L92.1589 11.7516L92.1535 11.7661L93.0898 12.1172ZM95.9961 5.03906V4.03906H95.3257L95.071 4.65924L95.9961 5.03906ZM99.6641 5.03906H100.664V4.03906H99.6641V5.03906ZM99.6641 18V19H100.664V18H99.6641ZM97.1211 18H96.1211V19H97.1211V18ZM97.1211 7.53516H98.1211L96.1633 7.24781L97.1211 7.53516ZM96.9102 8.23828L95.9523 7.95093L95.9496 7.95999L95.9471 7.9691L96.9102 8.23828ZM96.0195 11.0156L95.0936 10.6379L95.093 10.6394L96.0195 11.0156ZM93.1836 18V19H93.8568L94.1101 18.3762L93.1836 18ZM91.0977 18L90.1702 18.3741L90.4227 19H91.0977V18ZM88.2617 10.9688L87.3284 11.3277L87.3313 11.3353L87.3343 11.3428L88.2617 10.9688ZM87.1836 7.53516L88.152 7.28564L86.1836 7.53516H87.1836ZM87.1836 18V19H88.1836V18H87.1836ZM84.6641 18H83.6641V19H84.6641V18ZM84.6641 5.03906V4.03906H83.6641V5.03906H84.6641ZM88.3086 5.03906L89.234 4.66006L88.9797 4.03906H88.3086V5.03906ZM91.1211 11.9062L92.0512 11.5388L92.0465 11.5272L91.1211 11.9062ZM93.0707 15.6247L93.223 15.0622L91.2926 14.5394L91.1402 15.1019L93.0707 15.6247ZM93.222 15.0661C93.5396 13.9119 93.8076 13.0512 94.0262 12.4683L92.1535 11.7661C91.9034 12.4331 91.6167 13.3615 91.2936 14.5355L93.222 15.0661ZM94.0149 12.497L96.9212 5.41889L95.071 4.65924L92.1648 11.7374L94.0149 12.497ZM95.9961 6.03906H99.6641V4.03906H95.9961V6.03906ZM98.6641 5.03906V18H100.664V5.03906H98.6641ZM99.6641 17H97.1211V19H99.6641V17ZM98.1211 18V7.53516H96.1211V18H98.1211ZM96.1633 7.24781L95.9523 7.95093L97.868 8.52563L98.0789 7.8225L96.1633 7.24781ZM95.9471 7.9691C95.5976 9.21958 95.3131 10.0997 95.0936 10.6379L96.9455 11.3933C97.2103 10.744 97.5196 9.77261 97.8732 8.50747L95.9471 7.9691ZM95.093 10.6394L92.2571 17.6238L94.1101 18.3762L96.9461 11.3918L95.093 10.6394ZM93.1836 17H91.0977V19H93.1836V17ZM92.0251 17.6259L89.1891 10.5947L87.3343 11.3428L90.1702 18.3741L92.0251 17.6259ZM89.1951 10.6098C88.8207 9.63638 88.4724 8.52931 88.152 7.28564L86.2152 7.78467C86.551 9.08788 86.9215 10.2699 87.3284 11.3277L89.1951 10.6098ZM86.1836 7.53516V18H88.1836V7.53516H86.1836ZM87.1836 17H84.6641V19H87.1836V17ZM85.6641 18V5.03906H83.6641V18H85.6641ZM84.6641 6.03906H88.3086V4.03906H84.6641V6.03906ZM87.3832 5.41806L90.1957 12.2853L92.0465 11.5272L89.234 4.66006L87.3832 5.41806ZM90.191 12.2737C90.4126 12.8346 90.7269 13.925 91.1337 15.5994L93.0772 15.1272C92.6716 13.4578 92.3295 12.2435 92.0511 11.5388L90.191 12.2737ZM122.246 18V19H123.246V18H122.246ZM119.223 18L118.338 18.4667L118.62 19H119.223V18ZM112.191 4.67578L113.076 4.20907L112.794 3.67578H112.191V4.67578ZM112.039 4.67578V3.67578H110.953L111.042 4.75786L112.039 4.67578ZM112.285 18V19H113.285V18H112.285ZM109.836 18H108.836V19H109.836V18ZM109.836 0.867188V-0.132812H108.836V0.867188H109.836ZM112.906 0.867188L113.792 0.402537L113.511 -0.132812H112.906V0.867188ZM119.867 14.1328L118.982 14.5975L119.263 15.1328H119.867V14.1328ZM120.008 14.1328V15.1328H121.083L121.005 14.0604L120.008 14.1328ZM119.797 0.867188V-0.132812H118.797V0.867188H119.797ZM122.246 0.867188H123.246V-0.132812H122.246V0.867188ZM130.379 13.6992L129.641 13.0242L129.641 13.0246L130.379 13.6992ZM124.848 7.58203L124.11 6.90702L124.11 6.90739L124.848 7.58203ZM130.367 7.61719L129.619 8.2806L129.623 8.28488L130.367 7.61719ZM128.996 8.75391L128.169 9.31581L128.174 9.32312L128.996 8.75391ZM126.23 8.75391L127.045 9.33368L127.05 9.32633L126.23 8.75391ZM124.238 18H123.238V19H124.238V18ZM124.238 16.1016V15.1016H123.238V16.1016H124.238ZM130.977 16.1016H131.977V15.1016H130.977V16.1016ZM130.977 18V19H131.977V18H130.977ZM122.246 17H119.223V19H122.246V17ZM120.107 17.5333L113.076 4.20907L111.307 5.14249L118.338 18.4667L120.107 17.5333ZM112.191 3.67578H112.039V5.67578H112.191V3.67578ZM111.042 4.75786C111.206 6.73823 111.285 8.30118 111.285 9.45703H113.285C113.285 8.22226 113.201 6.59771 113.036 4.59371L111.042 4.75786ZM111.285 9.45703V18H113.285V9.45703H111.285ZM112.285 17H109.836V19H112.285V17ZM110.836 18V0.867188H108.836V18H110.836ZM109.836 1.86719H112.906V-0.132812H109.836V1.86719ZM112.021 1.33184L118.982 14.5975L120.753 13.6682L113.792 0.402537L112.021 1.33184ZM119.867 15.1328H120.008V13.1328H119.867V15.1328ZM121.005 14.0604C120.865 12.1326 120.797 10.6249 120.797 9.52734H118.797C118.797 10.6954 118.869 12.258 119.01 14.2052L121.005 14.0604ZM120.797 9.52734V0.867188H118.797V9.52734H120.797ZM119.797 1.86719H122.246V-0.132812H119.797V1.86719ZM121.246 0.867188V18H123.246V0.867188H121.246ZM130.387 10.6289C130.387 11.773 130.096 12.5266 129.641 13.0242L131.117 14.3742C132.005 13.4031 132.387 12.1098 132.387 10.6289H130.387ZM129.641 13.0246C129.206 13.5002 128.569 13.7891 127.59 13.7891V15.7891C129.001 15.7891 130.224 15.3513 131.117 14.3739L129.641 13.0246ZM127.59 13.7891C126.695 13.7891 126.069 13.5101 125.605 13.0082L124.137 14.3668C125.032 15.3336 126.219 15.7891 127.59 15.7891V13.7891ZM125.605 13.0082C125.143 12.5094 124.852 11.7605 124.852 10.6289H122.852C122.852 12.1067 123.24 13.3969 124.137 14.3668L125.605 13.0082ZM124.852 10.6289C124.852 9.4909 125.139 8.74567 125.586 8.25668L124.11 6.90739C123.228 7.87152 122.852 9.15754 122.852 10.6289H124.852ZM125.585 8.25704C126.03 7.77094 126.673 7.48047 127.648 7.48047V5.48047C126.234 5.48047 125.009 5.92437 124.11 6.90702L125.585 8.25704ZM127.648 7.48047C128.543 7.48047 129.162 7.76519 129.619 8.28059L131.115 6.95378C130.229 5.95356 129.035 5.48047 127.648 5.48047V7.48047ZM129.623 8.28488C130.102 8.81976 130.387 9.56664 130.387 10.6289H132.387C132.387 9.19118 131.991 7.93024 131.112 6.9495L129.623 8.28488ZM124.797 10.6289C124.797 11.5466 124.946 12.4089 125.387 13.0703L127.051 11.9609C126.929 11.7786 126.797 11.383 126.797 10.6289H124.797ZM125.387 13.0703C125.907 13.8511 126.745 14.1484 127.625 14.1484V12.1484C127.193 12.1484 127.093 12.0239 127.051 11.9609L125.387 13.0703ZM127.625 14.1484C128.498 14.1484 129.315 13.8405 129.828 13.0703L128.164 11.9609C128.115 12.0345 128.018 12.1484 127.625 12.1484V14.1484ZM129.828 13.0703C130.269 12.4089 130.418 11.5466 130.418 10.6289H128.418C128.418 11.383 128.286 11.7786 128.164 11.9609L129.828 13.0703ZM130.418 10.6289C130.418 9.71024 130.272 8.83944 129.818 8.1847L128.174 9.32312C128.283 9.48087 128.418 9.86007 128.418 10.6289H130.418ZM129.823 8.19202C129.307 7.43141 128.491 7.13281 127.625 7.13281V9.13281C128.025 9.13281 128.123 9.24828 128.169 9.31579L129.823 8.19202ZM127.625 7.13281C126.756 7.13281 125.937 7.428 125.411 8.18148L127.05 9.32633C127.103 9.25169 127.213 9.13281 127.625 9.13281V7.13281ZM125.416 8.17415C124.948 8.8311 124.797 9.70665 124.797 10.6289H126.797C126.797 9.86366 126.935 9.48921 127.045 9.33366L125.416 8.17415ZM125.238 18V16.1016H123.238V18H125.238ZM124.238 17.1016H130.977V15.1016H124.238V17.1016ZM129.977 16.1016V18H131.977V16.1016H129.977ZM130.977 17H124.238V19H130.977V17ZM151.941 14.2617V15.2617H152.941V14.2617H151.941ZM149.633 14.2617V13.2617H148.633V14.2617H149.633ZM149.633 18V19H150.633V18H149.633ZM146.949 18H145.949V19H146.949V18ZM146.949 14.2617H147.949V13.2617H146.949V14.2617ZM139.121 14.2617H138.121V15.2617H139.121V14.2617ZM139.121 12.1406L138.299 11.5719L138.121 11.8285V12.1406H139.121ZM146.949 0.820312V-0.179688H146.425L146.127 0.251545L146.949 0.820312ZM149.633 0.820312H150.633V-0.179688H149.633V0.820312ZM149.633 11.9766H148.633V12.9766H149.633V11.9766ZM151.941 11.9766H152.941V10.9766H151.941V11.9766ZM146.949 11.9766V12.9766H147.949V11.9766H146.949ZM147.066 3.91406L148.063 3.99381L148.15 2.91406H147.066V3.91406ZM146.973 3.91406V2.91406H146.311L146.052 3.52351L146.973 3.91406ZM145.941 5.78906L146.765 6.35559L146.775 6.34151L146.784 6.3271L145.941 5.78906ZM141.688 11.9766L140.863 11.41L139.786 12.9766H141.688V11.9766ZM151.941 13.2617H149.633V15.2617H151.941V13.2617ZM148.633 14.2617V18H150.633V14.2617H148.633ZM149.633 17H146.949V19H149.633V17ZM147.949 18V14.2617H145.949V18H147.949ZM146.949 13.2617H139.121V15.2617H146.949V13.2617ZM140.121 14.2617V12.1406H138.121V14.2617H140.121ZM139.944 12.7094L147.772 1.38908L146.127 0.251545L138.299 11.5719L139.944 12.7094ZM146.949 1.82031H149.633V-0.179688H146.949V1.82031ZM148.633 0.820312V11.9766H150.633V0.820312H148.633ZM149.633 12.9766H151.941V10.9766H149.633V12.9766ZM150.941 11.9766V14.2617H152.941V11.9766H150.941ZM147.949 11.9766V7.67578H145.949V11.9766H147.949ZM147.949 7.67578C147.949 6.15815 147.988 4.93345 148.063 3.99381L146.07 3.83432C145.989 4.8478 145.949 6.13091 145.949 7.67578H147.949ZM147.066 2.91406H146.973V4.91406H147.066V2.91406ZM146.052 3.52351C145.864 3.96795 145.552 4.54084 145.098 5.25103L146.784 6.3271C147.269 5.56853 147.644 4.89143 147.893 4.30461L146.052 3.52351ZM145.117 5.22253L140.863 11.41L142.512 12.5431L146.765 6.35559L145.117 5.22253ZM141.688 12.9766H146.949V10.9766H141.688V12.9766Z" fill="black"/>
</g>
<defs>
<filter id="filter0_d_191243_637" x="0.261719" y="0.820312" width="155.68" height="30.9453" filterUnits="userSpaceOnUse" color-interpolation-filters="sRGB">
<feFlood flood-opacity="0" result="BackgroundImageFix"/>
<feColorMatrix in="SourceAlpha" type="matrix" values="0 0 0 0 0 0 0 0 0 0 0 0 0 0 0 0 0 0 127 0" result="hardAlpha"/>
<feOffset dy="4"/>
<feGaussianBlur stdDeviation="2"/>
<feComposite in2="hardAlpha" operator="out"/>
<feColorMatrix type="matrix" values="0 0 0 0 0 0 0 0 0 0 0 0 0 0 0 0 0 0 0.25 0"/>
<feBlend mode="normal" in2="BackgroundImageFix" result="effect1_dropShadow_191243_637"/>
<feBlend mode="normal" in="SourceGraphic" in2="effect1_dropShadow_191243_637" result="shape"/>
</filter>
</defs>
</svg>
